<svg width="378" height="90" viewBox="0 0 378 90" fill="none" xmlns="http://www.w3.org/2000/svg">
<g clip-path="url(#clip0_18630_289266)">
<path d="M131.592 34.5411H140.854V68.7471C140.854 74.3302 136.985 77.7545 131.183 77.7545H119.467C113.665 77.7545 109.797 74.3674 109.797 68.7471V34.5411H119.17V67.5932C119.17 68.4121 119.802 69.0448 120.62 69.0448H130.142C130.96 69.0448 131.592 68.4121 131.592 67.5932V34.5411ZM144.833 68.3004H154.095V77.6801H144.833V68.3004ZM158.149 49.2806V42.4692C158.149 37.9282 161.422 34.5039 166.555 34.5039H180.167C185.3 34.5039 188.573 37.891 188.573 42.4692V48.7967H179.647V44.1813C179.647 43.3625 179.014 42.7297 178.196 42.7297H168.563C167.745 42.7297 167.112 43.3625 167.112 44.1813V48.3873C167.112 49.02 167.447 49.5783 168.451 49.8761L182.585 54.0076C187.011 55.3476 188.536 57.6553 188.536 62.494V69.752C188.536 74.2558 185.151 77.7173 180.056 77.7173H166.443C161.385 77.7173 158.074 74.2558 158.074 69.752V62.7545H167.001V68.0027C167.001 68.8215 167.633 69.4543 168.451 69.4543H178.085C178.903 69.4543 179.535 68.8215 179.535 68.0027V63.3873C179.535 62.6801 179.089 62.1218 178.196 61.8984L164.063 57.7669C159.636 56.4642 158.149 54.1565 158.149 49.2806ZM192.59 68.3004H201.851V77.6801H192.59V68.3004ZM241.24 70.4592H226.027L224.019 77.7173H214.348L227.255 34.5411H240.719L253.104 77.7173H243.248L241.24 70.4592ZM238.971 62.2707L233.689 42.8414L228.259 62.2707H238.971ZM285.351 59.8513L283.008 61.824L290.744 77.7545H280.33L273.487 62.9034H267.201V77.7173H257.828V34.5411H279.623C285.054 34.5411 288.736 37.8166 288.736 42.8042V51.2161C288.699 55.4592 288.29 57.4319 285.351 59.8513ZM279.326 53.2632V44.5535C279.326 43.7347 278.694 43.1019 277.875 43.1019H267.201V54.7148H277.875C278.694 54.7148 279.326 54.0821 279.326 53.2632ZM322.805 34.5411H334.968V77.7173H325.967V50.5461L316.594 77.7173H313.879L304.543 50.6205V77.7173H295.914V34.5411H308.077L315.515 58.1391L322.805 34.5411ZM377.257 34.5411L362.677 61.2285V77.7173H353.304V61.3029L339.133 34.5411H350.143L358.437 51.3649L366.694 34.5411H377.257Z" fill="white"/>
<path d="M93.7285 34.5412H58.2085L47.2363 0.744629L36.2642 34.5412H0.744141L29.4949 55.4593L18.5227 89.2558L47.2735 68.3749L76.0243 89.2558L65.0149 55.4593L93.7285 34.5412ZM47.2363 57.9903L34.4417 67.2955L39.314 52.2583L26.5194 42.9531H42.3267L47.2363 27.9158L52.1087 42.9531H67.916L55.1214 52.2583L59.9938 67.2955L47.2363 57.9903Z" fill="#FFCC01"/>
</g>
<defs>
<clipPath id="clip0_18630_289266">
<rect width="378" height="90" fill="white"/>
</clipPath>
</defs>
</svg>
